<svg id="Capa_1" data-name="Capa 1" xmlns="http://www.w3.org/2000/svg" viewBox="0 0 117.57 36.23"><defs><style>.cls-1{fill:#fff;}</style></defs><title>App Store</title><path class="cls-1" d="M22.54,18.32A5.13,5.13,0,0,1,25,14a5.32,5.32,0,0,0-4.15-2.25c-1.74-.18-3.44,1.05-4.33,1.05s-2.27-1-3.75-1a5.52,5.52,0,0,0-2.7.81,5.58,5.58,0,0,0-2,2c-2,3.48-.51,8.6,1.41,11.41,1,1.38,2.09,2.92,3.57,2.87s2-.92,3.72-.92,2.23.92,3.73.88S23.07,27.5,24,26.11a11.76,11.76,0,0,0,1.58-3.22,5,5,0,0,1-3-4.57Z"/><path class="cls-1" d="M19.7,9.9a5.08,5.08,0,0,0,1.16-3.63A5.22,5.22,0,0,0,17.52,8a5.1,5.1,0,0,0-.94,1.63,4.9,4.9,0,0,0-.25,1.86A4.2,4.2,0,0,0,19.7,9.9Z"/><path class="cls-1" d="M35.6,24h3.76l-1.85-5.45h-.06Zm4.25,1.55H35.11L34,28.92H32L36.45,16.5h2.09L43,28.92H41Z"/><path class="cls-1" d="M50.79,24.4c0-1.84-.94-3-2.39-3S46,22.59,46,24.4s.95,3,2.37,3,2.39-1.19,2.39-3Zm1.91,0c0,2.81-1.5,4.62-3.77,4.62a3.11,3.11,0,0,1-1.66-.39,3.05,3.05,0,0,1-1.19-1.2h0v4.49H44.18v-12H46v1.5h0a3.17,3.17,0,0,1,1.22-1.19,3.22,3.22,0,0,1,1.66-.41C51.19,19.77,52.7,21.59,52.7,24.4Z"/><path class="cls-1" d="M60.76,24.4c0-1.84-.95-3-2.39-3S56,22.59,56,24.4s1,3,2.38,3S60.76,26.25,60.76,24.4Zm1.91,0c0,2.81-1.51,4.62-3.78,4.62a3.05,3.05,0,0,1-1.65-.39,3,3,0,0,1-1.2-1.2h0v4.49H54.14v-12h1.8v1.5h0a3.25,3.25,0,0,1,2.89-1.6C61.15,19.77,62.67,21.59,62.67,24.4Z"/><path class="cls-1" d="M69.25,25.46c.14,1.23,1.34,2,3,2s2.7-.81,2.7-1.92c0-1-.68-1.54-2.29-1.93L71,23.26c-2.28-.55-3.34-1.62-3.34-3.35,0-2.14,1.87-3.61,4.52-3.61s4.42,1.47,4.48,3.61H74.8c-.11-1.24-1.13-2-2.63-2s-2.52.76-2.52,1.86c0,.88.65,1.4,2.25,1.79l1.37.34c2.55.6,3.61,1.62,3.61,3.44,0,2.32-1.85,3.78-4.79,3.78-2.76,0-4.62-1.42-4.74-3.67Z"/><path class="cls-1" d="M80.89,17.73v2.14h1.72v1.47H80.89v5c0,.78.35,1.14,1.1,1.14l.61,0v1.46a5.05,5.05,0,0,1-1,.08C79.74,29,79,28.29,79,26.53V21.34H77.71V19.87H79V17.73Z"/><path class="cls-1" d="M90.3,24.4c0-2-.89-3.11-2.4-3.11s-2.4,1.16-2.4,3.11.9,3.1,2.4,3.1,2.4-1.14,2.4-3.1Zm-6.69,0c0-2.85,1.68-4.64,4.29-4.64s4.3,1.79,4.3,4.64S90.54,29,87.9,29,83.61,27.25,83.61,24.4Z"/><path class="cls-1" d="M93.73,19.87H95.5v1.54h0a2.15,2.15,0,0,1,.79-1.2,2.23,2.23,0,0,1,1.38-.44,3.39,3.39,0,0,1,.64.07v1.74a2.62,2.62,0,0,0-.84-.11,1.89,1.89,0,0,0-.78.14,1.79,1.79,0,0,0-.66.46,1.67,1.67,0,0,0-.41.69,1.91,1.91,0,0,0-.08.79v5.37H93.73Z"/><path class="cls-1" d="M100.65,23.56h4.52a2.12,2.12,0,0,0-.61-1.63,2,2,0,0,0-.73-.5,2.22,2.22,0,0,0-.88-.17,2.28,2.28,0,0,0-1.63.67,2.52,2.52,0,0,0-.5.75,2.06,2.06,0,0,0-.17.88Zm6.28,2.7c-.25,1.65-1.85,2.77-3.9,2.77-2.63,0-4.27-1.76-4.27-4.59s1.64-4.68,4.19-4.68S107,21.48,107,24.22v.64h-6.39V25a2.31,2.31,0,0,0,.64,1.83,2.18,2.18,0,0,0,.82.56,2.32,2.32,0,0,0,1,.18,2.07,2.07,0,0,0,1.26-.29,2,2,0,0,0,.83-1Z"/><path class="cls-1" d="M33,10.14C33,8.21,34,7,35.66,7a2.38,2.38,0,0,1,1.64.55,2.42,2.42,0,0,1,.84,1.52h-.92a1.57,1.57,0,0,0-.56-.88,1.52,1.52,0,0,0-1-.32c-1.07,0-1.74.87-1.74,2.26s.67,2.26,1.74,2.26a1.5,1.5,0,0,0,1.56-1.1h.92a2.33,2.33,0,0,1-2.48,2C34,13.27,33,12.07,33,10.14Z"/><path class="cls-1" d="M42.49,10.87c0-1-.44-1.55-1.21-1.55s-1.21.57-1.21,1.55.44,1.55,1.21,1.55,1.21-.57,1.21-1.55Zm-3.34,0a2.39,2.39,0,0,1,.1-.88,2.25,2.25,0,0,1,.45-.76,2.05,2.05,0,0,1,.72-.51,2,2,0,0,1,1.72,0,2.15,2.15,0,0,1,.72.51,2.08,2.08,0,0,1,.44.76,2,2,0,0,1,.1.88,2,2,0,0,1-.1.88,2.08,2.08,0,0,1-.44.76,2.18,2.18,0,0,1-.72.52,2.11,2.11,0,0,1-.86.18,2.19,2.19,0,0,1-.87-.18,2.14,2.14,0,0,1-.71-.52,2.25,2.25,0,0,1-.45-.76A2.36,2.36,0,0,1,39.15,10.87Z"/><path class="cls-1" d="M44.59,8.62h.86v.72h.07a1.31,1.31,0,0,1,.54-.62,1.4,1.4,0,0,1,.8-.19,1.54,1.54,0,0,1,.64.1A1.45,1.45,0,0,1,48,9a1.51,1.51,0,0,1,.33.56,1.58,1.58,0,0,1,.05.65v2.91h-.89V10.43c0-.72-.31-1.08-1-1.08a1.1,1.1,0,0,0-.44.07,1,1,0,0,0-.36.25,1.14,1.14,0,0,0-.23.38,1.09,1.09,0,0,0-.05.44v2.63h-.89Z"/><path class="cls-1" d="M51.44,8.53c1,0,1.67.48,1.76,1.27h-.85c-.08-.33-.41-.54-.91-.54s-.87.23-.87.58.22.44.71.56l.75.17c.86.2,1.26.57,1.26,1.23,0,.84-.79,1.41-1.87,1.41s-1.77-.48-1.85-1.28h.89a.92.92,0,0,0,.4.45.9.9,0,0,0,.58.11c.56,0,1-.25,1-.61s-.21-.44-.66-.55l-.79-.18c-.85-.2-1.25-.59-1.25-1.26S50.42,8.53,51.44,8.53Z"/><path class="cls-1" d="M54.5,8.62h.89v4.5H54.5Zm-.09-.75,1-1.42h1L55.33,7.87Z"/><path class="cls-1" d="M59.93,10.82c0-.9-.47-1.48-1.23-1.48s-1.19.58-1.19,1.48.43,1.47,1.19,1.47S59.93,11.72,59.93,10.82Zm-3.16,2.75h.91c.07.33.45.54,1,.54s1.18-.35,1.18-.94V12.3h-.07a1.5,1.5,0,0,1-1.39.76c-1.15,0-1.86-.89-1.86-2.24s.72-2.27,1.87-2.27a1.59,1.59,0,0,1,1.42.79H60V8.62h.85v4.54c0,1-.81,1.68-2.08,1.68S56.86,14.34,56.77,13.57Z"/><path class="cls-1" d="M66,13.12h-.86v-.71h-.07a1.28,1.28,0,0,1-.55.62,1.33,1.33,0,0,1-.81.18,1.43,1.43,0,0,1-.64-.1,1.47,1.47,0,0,1-.53-.36,1.51,1.51,0,0,1-.33-.56,1.58,1.58,0,0,1,0-.65V8.62h.89v2.69c0,.73.29,1.08,1,1.08a1.17,1.17,0,0,0,.45-.06.91.91,0,0,0,.37-.24,1,1,0,0,0,.24-.39.94.94,0,0,0,.05-.44V8.62H66Z"/><path class="cls-1" d="M68.11,10.46h2.27a1.1,1.1,0,0,0-.29-.83,1.18,1.18,0,0,0-.37-.26,1.33,1.33,0,0,0-.45-.08,1.2,1.2,0,0,0-.45.09,1,1,0,0,0-.38.25,1.39,1.39,0,0,0-.25.38A1.12,1.12,0,0,0,68.11,10.46Zm3.12,1.45a1.84,1.84,0,0,1-2,1.3,2,2,0,0,1-.86-.17,2,2,0,0,1-.72-.51,2.16,2.16,0,0,1-.43-.77,2.13,2.13,0,0,1-.07-.87,2.08,2.08,0,0,1,2.08-2.36c1.25,0,2,.86,2,2.27v.31H68.11v.05a1,1,0,0,0,.06.49,1.12,1.12,0,0,0,.25.42,1.14,1.14,0,0,0,.4.29,1.18,1.18,0,0,0,.49.09,1.08,1.08,0,0,0,1.07-.54Z"/><rect class="cls-1" x="72.52" y="6.86" width="0.89" height="6.26"/><path class="cls-1" d="M78,10.87c0-1-.44-1.55-1.21-1.55s-1.21.57-1.21,1.55.44,1.55,1.21,1.55S78,11.85,78,10.87Zm-3.33,0a2,2,0,0,1,.1-.88,2.08,2.08,0,0,1,.44-.76,2.05,2.05,0,0,1,.72-.51,2,2,0,0,1,1.72,0,2.15,2.15,0,0,1,.72.51,2.08,2.08,0,0,1,.44.76,2,2,0,0,1,.1.88,2,2,0,0,1-.1.88A2.12,2.12,0,0,1,77.63,13a2.14,2.14,0,0,1-1.72,0,2.08,2.08,0,0,1-.72-.52,2.25,2.25,0,0,1-.45-.76A2.17,2.17,0,0,1,74.65,10.87Z"/><path class="cls-1" d="M83.21,10.46h2.27a.87.87,0,0,0-.06-.45,1.14,1.14,0,0,0-.23-.38,1.18,1.18,0,0,0-.37-.26,1.32,1.32,0,0,0-.44-.08,1.13,1.13,0,0,0-.45.09,1,1,0,0,0-.38.25,1.22,1.22,0,0,0-.26.38,1.33,1.33,0,0,0-.08.45Zm3.13,1.45a1.84,1.84,0,0,1-2,1.3,2,2,0,0,1-.86-.17,1.9,1.9,0,0,1-.71-.51,2,2,0,0,1-.44-.77,2.13,2.13,0,0,1-.07-.87,2.17,2.17,0,0,1,.08-.88,1.89,1.89,0,0,1,.43-.77,2.07,2.07,0,0,1,.71-.53,2.11,2.11,0,0,1,.86-.18c1.25,0,2,.86,2,2.27v.31H83.21v.05a1.32,1.32,0,0,0,.06.49,1.27,1.27,0,0,0,.25.42,1.18,1.18,0,0,0,.41.29,1.11,1.11,0,0,0,.48.09,1,1,0,0,0,.62-.11,1,1,0,0,0,.45-.43Z"/><path class="cls-1" d="M87.58,8.62h.86v.72h.07a1.31,1.31,0,0,1,.54-.62,1.4,1.4,0,0,1,.8-.19,1.54,1.54,0,0,1,.64.1A1.45,1.45,0,0,1,91,9a1.51,1.51,0,0,1,.33.56,1.58,1.58,0,0,1,0,.65v2.91h-.89V10.43c0-.72-.32-1.08-1-1.08a1.1,1.1,0,0,0-.44.07,1,1,0,0,0-.36.25,1.14,1.14,0,0,0-.23.38,1.09,1.09,0,0,0,0,.44v2.63h-.89Z"/><path class="cls-1" d="M95.91,10.46h2.27a1.14,1.14,0,0,0-.06-.45,1,1,0,0,0-.24-.38,1.08,1.08,0,0,0-.37-.26,1.32,1.32,0,0,0-.44-.08,1.2,1.2,0,0,0-.45.09,1,1,0,0,0-.38.25A1.19,1.19,0,0,0,96,10a1,1,0,0,0-.08.45ZM99,11.91a1.84,1.84,0,0,1-2,1.3,2.1,2.1,0,0,1-1.58-.68,2.16,2.16,0,0,1-.43-.77,2,2,0,0,1-.07-.87,2.08,2.08,0,0,1,2.08-2.36c1.25,0,2,.86,2,2.27v.31H95.91v.05a1,1,0,0,0,.06.49,1.12,1.12,0,0,0,.25.42,1.14,1.14,0,0,0,.4.29,1.18,1.18,0,0,0,.49.09,1.1,1.1,0,0,0,1.07-.54Z"/><rect class="cls-1" x="100.32" y="6.86" width="0.89" height="6.26"/></svg>