<svg id="Capa_1" data-name="Capa 1" xmlns="http://www.w3.org/2000/svg" viewBox="0 0 50 50"><title>IG</title><path style="fill:#fff;" d="M36.4,31.4a5,5,0,0,1-5,5h-12a5,5,0,0,1-5-5v-12a5,5,0,0,1,5-5h12a5,5,0,0,1,5,5ZM31.4,12h-12A7.37,7.37,0,0,0,12,19.36v12a7.37,7.37,0,0,0,7.36,7.4h12a7.37,7.37,0,0,0,7.4-7.36v-12A7.37,7.37,0,0,0,31.44,12Z"/><path style="fill:#fff;" d="M25.4,29.9a4.5,4.5,0,1,1,4.5-4.5h0a4.49,4.49,0,0,1-4.46,4.5Zm0-11.4a6.9,6.9,0,1,0,6.9,6.9h0A6.91,6.91,0,0,0,25.4,18.5Z"/><path style="fill:#fff;" d="M32.6,16.4a1.7,1.7,0,0,0-1.2.5,1.85,1.85,0,0,0-.5,1.2,1.7,1.7,0,0,0,.5,1.2,1.85,1.85,0,0,0,1.2.5,1.7,1.7,0,0,0,1.2-.5,1.85,1.85,0,0,0,.5-1.2,1.7,1.7,0,0,0-.5-1.2A1.85,1.85,0,0,0,32.6,16.4Z"/></svg>