<svg id="Capa_1" data-name="Capa 1" xmlns="http://www.w3.org/2000/svg" viewBox="0 0 50 50"><title>twtr</title><path style="fill:#fff;" d="M30.2,15a6.12,6.12,0,0,0-4.1,6.1l.1,1-1-.1a17,17,0,0,1-10-4.9l-1.4-1.4-.4,1A6,6,0,0,0,14.7,23c.8.9.6,1-.8.5-.5-.2-.9-.3-1-.2a8.82,8.82,0,0,0,.8,2.8,6.32,6.32,0,0,0,2.9,2.7l1,.5H16.4c-1.2,0-1.2,0-1.1.5.4,1.4,2.1,2.8,3.9,3.5l1.3.4-1.1.7A12.37,12.37,0,0,1,13.8,36a4.1,4.1,0,0,0-1.7.2,18.56,18.56,0,0,0,4,1.9,17.53,17.53,0,0,0,13.8-1.6,18.72,18.72,0,0,0,7-8.2,22.29,22.29,0,0,0,1.4-6.4c0-1,.1-1.1,1.2-2.3.7-.7,1.3-1.4,1.5-1.6.2-.4.2-.4-.9,0-1.8.6-2,.6-1.2-.4a6.71,6.71,0,0,0,1.4-2.3c0-.1-.3,0-.7.2a17.17,17.17,0,0,1-1.8.7l-1.1.4-1-.7a7.58,7.58,0,0,0-1.8-.9A6.65,6.65,0,0,0,30.2,15Z"/></svg>