<svg id="Capa_1" data-name="Capa 1" xmlns="http://www.w3.org/2000/svg" viewBox="0 0 20 20"><defs><style>.cls-1{fill:#db0500;}</style></defs><title>20x20 X</title><path class="cls-1" d="M17.39,17.38a1.87,1.87,0,0,1-1.28.54,1.89,1.89,0,0,1-1.3-.54L10,12.57,5.19,17.38a1.83,1.83,0,0,1-2.58,0,1.84,1.84,0,0,1,0-2.56L7.44,10,2.61,5.18a1.82,1.82,0,0,1,0-2.56,1.86,1.86,0,0,1,1.3-.53,1.82,1.82,0,0,1,1.28.53L10,7.44l4.81-4.82a1.81,1.81,0,0,1,2.58,0,1.84,1.84,0,0,1,.52,1.28,1.81,1.81,0,0,1-.52,1.28L12.57,10l4.82,4.81A1.82,1.82,0,0,1,17.39,17.38Z"/></svg>