<svg id="Capa_1" data-name="Capa 1" xmlns="http://www.w3.org/2000/svg" viewBox="0 0 26.59331 22.46676"><defs><style>.cls-1{fill:#f8f8f9;}</style></defs><title>alert</title><path class="cls-1" d="M13.91946,12.9294a.99943.99943,0,0,1-1-1v-3a1,1,0,0,1,2,0v3A.99942.99942,0,0,1,13.91946,12.9294Z"/><circle class="cls-1" cx="13.91988" cy="14.9294" r="1"/><path class="cls-1" d="M22.17142,19.9294H5.66849a1.99994,1.99994,0,0,1-1.72461-3.0127l8.252-14.02929a2.00028,2.00028,0,0,1,3.44824,0l8.252,14.02832a1.99974,1.99974,0,0,1-1.7246,3.01367ZM13.92044,3.903,5.66849,17.9294H22.17142Z"/></svg>