<svg id="Capa_1" data-name="Capa 1" xmlns="http://www.w3.org/2000/svg" viewBox="0 0 28.19807 24.53003"><defs><style>.cls-1{fill:#f8f8f9;}</style></defs><title>bell</title><path class="cls-1" d="M23.18852,18.21774c-.3601-.18-1.45019-.73-1.45019-3.11v-5a7,7,0,0,0-14,0v5c0,2.38-1.08985,2.93-1.43994,3.11a.98349.98349,0,0,0-.53,1.12,1.00385,1.00385,0,0,0,.97.77H11.9185a2.988,2.988,0,0,0,5.6399,0h5.17993a.99638.99638,0,0,0,.45019-1.89Zm-14.07006-.11a6.59747,6.59747,0,0,0,.61987-3v-5a5,5,0,0,1,10,0v5a6.49254,6.49254,0,0,0,.64014,3Z"/></svg>