<svg id="Capa_1" data-name="Capa 1" xmlns="http://www.w3.org/2000/svg" viewBox="0 0 29.11508 30.26135"><defs><style>.cls-1{fill:#f8f8f9;}</style></defs><title>calendar</title><path class="cls-1" d="M23.69385,6.62954h-3a1,1,0,0,0-2,0h-6a1,1,0,0,0-2,0h-3a3.00886,3.00886,0,0,0-3,3v14a3.00887,3.00887,0,0,0,3,3h16a3.00226,3.00226,0,0,0,3-3v-14A3.00225,3.00225,0,0,0,23.69385,6.62954Zm1,17a1.00292,1.00292,0,0,1-1,1h-16a1.00308,1.00308,0,0,1-1-1v-9h18Zm0-11h-18v-3a1.00308,1.00308,0,0,1,1-1h3v2a1,1,0,0,0,2,0v-2h6v2a1,1,0,1,0,2,0v-2h3a1.00291,1.00291,0,0,1,1,1Z"/></svg>