<svg id="Capa_1" data-name="Capa 1" xmlns="http://www.w3.org/2000/svg" viewBox="0 0 26.82256 26.82256"><defs><style>.cls-1{fill:#f8f8f9;}</style></defs><title>chat</title><path class="cls-1" d="M5.99649,23.79552a.99961.99961,0,0,1-.99023-1.14161l.5791-4.0498a8.06471,8.06471,0,0,1-2.58887-5.80859c0-4.9629,4.93457-9,11-9s11,4.0371,11,9-4.93457,9-11,9a13.34219,13.34219,0,0,1-3.06055-.35157l-4.49218,2.2461A1.00606,1.00606,0,0,1,5.99649,23.79552Zm8-18c-4.96289,0-9,3.14062-9,7a6.20681,6.20681,0,0,0,2.30859,4.67187,1.001,1.001,0,0,1,.335.89746l-.38379,2.68262,3.11718-1.5586a.99982.99982,0,0,1,.70606-.07128,11.26139,11.26139,0,0,0,2.917.37793c4.96289,0,9-3.14063,9-7S18.95938,5.79552,13.99649,5.79552Z"/></svg>