<svg id="Capa_1" data-name="Capa 1" xmlns="http://www.w3.org/2000/svg" viewBox="0 0 29.57359 23.84227"><defs><style>.cls-1{fill:#f8f8f9;}</style></defs><title>folder</title><path class="cls-1" d="M7.33642,21.30882a3.00077,3.00077,0,0,1-2.999-2.999l-.00684-11.999A3.00454,3.00454,0,0,1,7.32861,3.30882l3.76367-.00195a2.9861,2.9861,0,0,1,2.68555,1.65722l.1709.3418L23.33056,5.301h.002a3.00077,3.00077,0,0,1,2.999,2.999l.00586,9.999a3.00454,3.00454,0,0,1-2.998,3.002l-16.001.00781Zm-.00586-16a1.00215,1.00215,0,0,0-1,1.001l.00684,11.999a.99859.99859,0,0,0,.999,1h.001l16.001-.00781a1.0013,1.0013,0,0,0,.999-1.001l-.00586-9.999a.99859.99859,0,0,0-.999-1h-.001L12.7124,7.30589l-.72363-1.44726a.99594.99594,0,0,0-.89551-.55176Z"/></svg>