<svg id="Capa_1" data-name="Capa 1" xmlns="http://www.w3.org/2000/svg" viewBox="0 0 31.40761 27.05181"><defs><style>.cls-1{fill:#f8f8f9;}</style></defs><title>home</title><path class="cls-1" d="M16.974.41344l-11,9.9v11.45a2.75529,2.75529,0,0,0,3,3h16a2.75517,2.75517,0,0,0,3-3v-11.45Zm-2,22.35a1.00308,1.00308,0,0,1-1-1v-6a1.00308,1.00308,0,0,1,1-1h4a1.00291,1.00291,0,0,1,1,1v6a1.00291,1.00291,0,0,1-1,1Zm11-1c0,.79-.21,1-1,1H21.79407a2.76939,2.76939,0,0,0,.17993-1v-6a3.00226,3.00226,0,0,0-3-3h-4a3.00887,3.00887,0,0,0-3,3v6a2.76954,2.76954,0,0,0,.18018,1H8.974c-.77978,0-1-.21-1-1v-10.55l9-8.1,9,8.1Z"/></svg>