<svg id="Capa_1" data-name="Capa 1" xmlns="http://www.w3.org/2000/svg" viewBox="0 0 27.51032 26.82256"><defs><style>.cls-1{fill:#f8f8f9;}</style></defs><title>info</title><path class="cls-1" d="M14.35963,17.22193a.99942.99942,0,0,1-1-1v-3a1,1,0,0,1,2,0v3A.99943.99943,0,0,1,14.35963,17.22193Z"/><circle class="cls-1" cx="14.36005" cy="10.22193" r="1"/><path class="cls-1" d="M14.35963,25.22193a12,12,0,1,1,12-12A12.01312,12.01312,0,0,1,14.35963,25.22193Zm0-22a10,10,0,1,0,10,10A10.01177,10.01177,0,0,0,14.35963,3.22193Z"/></svg>