<svg id="Capa_1" data-name="Capa 1" xmlns="http://www.w3.org/2000/svg" viewBox="0 0 29.80284 22.92526"><defs><style>.cls-1{fill:#f8f8f9;}</style></defs><title>mail</title><polygon class="cls-1" points="14.932 14.046 4.263 4.443 5.601 2.957 14.932 11.354 24.263 2.957 25.601 4.443 14.932 14.046"/><rect class="cls-1" x="3.11677" y="12.70008" width="10.63015" height="2.00013" transform="translate(-7.4322 11.03143) rotate(-48.84039)"/><rect class="cls-1" x="20.43177" y="8.38507" width="2.00013" height="10.63015" transform="matrix(0.75258, -0.6585, 0.6585, 0.75258, -3.71887, 17.5027)"/><path class="cls-1" d="M23.93184,19.70015h-18a3.00329,3.00329,0,0,1-3-3v-12a3.00328,3.00328,0,0,1,3-3h18a3.00328,3.00328,0,0,1,3,3v12A3.00328,3.00328,0,0,1,23.93184,19.70015Zm-18-16a1.00067,1.00067,0,0,0-1,1v12a1.00068,1.00068,0,0,0,1,1h18a1.00068,1.00068,0,0,0,1-1v-12a1.00067,1.00067,0,0,0-1-1Z"/></svg>