<svg id="Capa_1" data-name="Capa 1" xmlns="http://www.w3.org/2000/svg" viewBox="0 0 16.50619 20.40348"><defs><style>.cls-1{fill:#f8f8f9;}</style></defs><title>menu</title><path class="cls-1" d="M14.43757,6.01239h-8a1,1,0,0,1,0-2h8a1,1,0,0,1,0,2Z"/><path class="cls-1" d="M14.43757,11.01239h-8a1,1,0,0,1,0-2h8a1,1,0,0,1,0,2Z"/><path class="cls-1" d="M14.43757,16.01239h-8a1,1,0,0,1,0-2h8a1,1,0,0,1,0,2Z"/><circle class="cls-1" cx="2.43799" cy="5.01239" r="1"/><circle class="cls-1" cx="2.43799" cy="10.01239" r="1"/><circle class="cls-1" cx="2.43799" cy="15.01239" r="1"/></svg>