<svg id="Capa_1" data-name="Capa 1" xmlns="http://www.w3.org/2000/svg" viewBox="0 0 27.96882 27.05181"><defs><style>.cls-1{fill:#f8f8f9;}</style></defs><title>Mesa de trabajo 48</title><path class="cls-1" d="M21.74706,20.57268H10.57617a2.98151,2.98151,0,0,1-2.1211-.8789L2.04,13.27971a.99963.99963,0,0,1,0-1.41406l6.415-6.41406a2.98156,2.98156,0,0,1,2.1211-.87891H21.74706a4.004,4.004,0,0,1,4,4v8A4.004,4.004,0,0,1,21.74706,20.57268Zm-17.58593-8,5.708,5.707a1.00683,1.00683,0,0,0,.707.293H21.74706a2.0026,2.0026,0,0,0,2-2v-8a2.0026,2.0026,0,0,0-2-2H10.57617a1.00688,1.00688,0,0,0-.707.293Z"/><circle class="cls-1" cx="11.74706" cy="12.57268" r="2"/></svg>