<svg id="Capa_1" data-name="Capa 1" xmlns="http://www.w3.org/2000/svg" viewBox="0 0 25.21779 19.94498"><defs><style>.cls-1{fill:#f8f8f9;}</style></defs><title>right right</title><path class="cls-1" d="M23.19041,9.669a1.01461,1.01461,0,0,1-.28979.71l-6,6a1.02426,1.02426,0,0,1-.71021.29,1,1,0,0,1-.69995-1.71l4.29-4.29H4.19041a1,1,0,0,1,0-2H19.7805l-4.29-4.29a1.00821,1.00821,0,0,1,0-1.42.99613.99613,0,0,1,1.41016,0l6,6A1.01461,1.01461,0,0,1,23.19041,9.669Z"/><path class="cls-1" d="M22.90062,10.379a1.01471,1.01471,0,0,0,0-1.42l.71.71Z"/></svg>