<svg id="Capa_1" data-name="Capa 1" xmlns="http://www.w3.org/2000/svg" viewBox="0 0 27.51032 23.61302"><defs><style>.cls-1{fill:#f8f8f9;}</style></defs><title>settings</title><path class="cls-1" d="M15.37673,21.06328H14.26052a2.99528,2.99528,0,0,1-2.84668-2.05176l-.28223-.84668c-.21094-.10937-.417-.22949-.61816-.35742l-.877.17871a2.996,2.996,0,0,1-3.19922-1.43945l-.55859-.9668a2.99585,2.99585,0,0,1,.35449-3.49023l.59278-.66992c-.00489-.11817-.00782-.23731-.00782-.35645s.00293-.23828.00782-.35644l-.59278-.66992a2.99586,2.99586,0,0,1-.35449-3.49024l.55859-.9668A2.99617,2.99617,0,0,1,9.63649,4.14043l.877.17871c.20117-.12793.40722-.24805.61816-.35742l.2832-.84766a2.99354,2.99354,0,0,1,2.84571-2.05078h1.11621a2.99628,2.99628,0,0,1,2.8457,2.05078l.2832.84766c.21094.11035.418.22949.61817.35742l.877-.17871A2.99918,2.99918,0,0,1,23.2,5.57988l.55859.9668a2.99866,2.99866,0,0,1-.35449,3.49024l-.59375.67089c.00488.11719.00781.23633.00781.35547s-.00293.23828-.00781.35547l.59375.6709a2.99731,2.99731,0,0,1,.35449,3.48926L23.2,16.54668a2.99932,2.99932,0,0,1-3.19922,1.43945l-.877-.17871c-.2002.12793-.40723.24707-.61817.35742l-.2832.84766A2.99628,2.99628,0,0,1,15.37673,21.06328Zm-4.42286-5.38769.35645.25586a5.972,5.972,0,0,0,1.04688.60547l.39941.17968.55469,1.66309a.99884.99884,0,0,0,.94922.68359h1.11621a.99977.99977,0,0,0,.94922-.68359l.55468-1.66309.39942-.17968a5.98809,5.98809,0,0,0,1.04687-.60547l.35645-.25586,1.71777.35156a1.00139,1.00139,0,0,0,1.06641-.48047l.55859-.9668a1.00083,1.00083,0,0,0-.11816-1.16406l-1.16114-1.31055.042-.43359q.02929-.29883.02929-.6084c0-.20605-.00976-.4082-.02929-.60937l-.042-.43262L21.908,8.71074a1.00218,1.00218,0,0,0,.11816-1.165l-.55859-.96582a1.00173,1.00173,0,0,0-1.06641-.48046L18.68337,6.451l-.35645-.25586a5.98746,5.98746,0,0,0-1.04687-.60547L16.88063,5.41,16.326,3.74688a.99978.99978,0,0,0-.94922-.6836H14.26052a.99711.99711,0,0,0-.94825.68262L12.75661,5.41l-.39941.17969a5.97137,5.97137,0,0,0-1.04688.60547l-.35645.25586L9.2361,6.09942a.99736.99736,0,0,0-1.0664.48046l-.5586.9668a.99924.99924,0,0,0,.11817,1.16406L8.8904,10.02129l-.042.43262c-.01954.20117-.03028.40332-.03028.60937s.01074.40918.03028.6084l.042.43359L7.72927,13.41582a.99924.99924,0,0,0-.11817,1.16406l.5586.9668a.99929.99929,0,0,0,1.0664.48047Z"/><circle class="cls-1" cx="14.81855" cy="11.06328" r="2"/></svg>