<svg id="Capa_1" data-name="Capa 1" xmlns="http://www.w3.org/2000/svg" viewBox="0 0 23.61302 19.02797"><defs><style>.cls-1{fill:#f8f8f9;}</style></defs><title>share</title><path class="cls-1" d="M7.51323,9.22926a1.00012,1.00012,0,0,1-.35157-1.93652l8-3a1.00033,1.00033,0,1,1,.70313,1.873l-8,3A1.00972,1.00972,0,0,1,7.51323,9.22926Z"/><path class="cls-1" d="M15.51323,14.22926a1.00977,1.00977,0,0,1-.35157-.06348l-8-3a1.00033,1.00033,0,1,1,.70313-1.873l8,3a1.00012,1.00012,0,0,1-.35156,1.93652Z"/><path class="cls-1" d="M5.51323,12.22926a3,3,0,1,1,3-3A3.00328,3.00328,0,0,1,5.51323,12.22926Zm0-4a1,1,0,1,0,1,1A1.00067,1.00067,0,0,0,5.51323,8.22926Z"/><path class="cls-1" d="M17.51323,7.22926a3,3,0,1,1,3-3A3.00328,3.00328,0,0,1,17.51323,7.22926Zm0-4a1,1,0,1,0,1,1A1.00067,1.00067,0,0,0,17.51323,3.22926Z"/><path class="cls-1" d="M17.51323,17.22926a3,3,0,1,1,3-3A3.00328,3.00328,0,0,1,17.51323,17.22926Zm0-4a1,1,0,1,0,1,1A1.00067,1.00067,0,0,0,17.51323,13.22926Z"/></svg>