<svg id="Capa_1" data-name="Capa 1" xmlns="http://www.w3.org/2000/svg" viewBox="0 0 17.19395 24.75928"><defs><style>.cls-1{fill:#f8f8f9;}</style></defs><title>up 01</title><path class="cls-1" d="M15.44945,9.67152a1.02424,1.02424,0,0,1-.7102.29,1.00124,1.00124,0,0,1-.7-.29l-4.3-4.3v15.59a1,1,0,0,1-2,0v-15.59l-4.2898,4.3a.99615.99615,0,0,1-1.41016,0,1.00822,1.00822,0,0,1,0-1.42l5.95-5.94995.09008-.09a.98437.98437,0,0,1,.65992-.25.948.948,0,0,1,.66015.25l.08985.08,5.9602,5.96A1.00822,1.00822,0,0,1,15.44945,9.67152Z"/><path class="cls-1" d="M9.3994,2.21149a.948.948,0,0,0-.66015-.25.98437.98437,0,0,0-.65992.25l.65992-.66Z"/></svg>