<svg id="Capa_1" data-name="Capa 1" xmlns="http://www.w3.org/2000/svg" viewBox="0 0 19.25722 22.69601"><defs><style>.cls-1{fill:#f8f8f9;}</style></defs><title>volume -</title><path class="cls-1" d="M12.98411,19.92937a2.01438,2.01438,0,0,1-1.41406-.58594l-3-3H4.98411a2.0026,2.0026,0,0,1-2-2v-4a2.0026,2.0026,0,0,1,2-2H8.57005l3-3a1.98633,1.98633,0,0,1,1.41406-.58594h.002a1.98335,1.98335,0,0,1,1.41309.58692,2.0067,2.0067,0,0,1,.585,1.41308V17.92937A2.0026,2.0026,0,0,1,12.98411,19.92937Zm-8-9.58594v4h4a.99927.99927,0,0,1,.707.293l3.293,3.293V6.7614l-3.293,3.28906a.99927.99927,0,0,1-.707.293Zm8-3.58594h1l-1-.001Z"/><path class="cls-1" d="M14.98411,14.34343a1,1,0,0,1-.707-1.707.53979.53979,0,0,0,0-.58594.99989.99989,0,0,1,1.41406-1.41406,2.50912,2.50912,0,0,1,0,3.41406A.99676.99676,0,0,1,14.98411,14.34343Z"/></svg>