<svg id="Capa_1" data-name="Capa 1" xmlns="http://www.w3.org/2000/svg" viewBox="0 0 26.59331 24.07153"><defs><style>.cls-1{fill:#f8f8f9;}</style></defs><title>volume +</title><path class="cls-1" d="M16.47467,11.32116a1.00713,1.00713,0,0,0-.71021-.29v-3.59a2.016,2.016,0,0,0-.57983-1.41,1.99181,1.99181,0,0,0-2.83008,0l-3,3H5.76446a2.006,2.006,0,0,0-2,2v4a2.006,2.006,0,0,0,2,2H9.35455l3,3a2.02549,2.02549,0,0,0,1.40991.59,1.99939,1.99939,0,0,0,2-2v-3.59a1.02426,1.02426,0,0,0,.71021-.29A2.52438,2.52438,0,0,0,16.47467,11.32116Zm-2.71021,7.30005-3.28979-3.30005a1.03356,1.03356,0,0,0-.71021-.29h-4v-4h4a1.03357,1.03357,0,0,0,.71021-.29l3.28979-3.29Z"/><path class="cls-1" d="M19.76724,21.03119a1,1,0,0,1-.707-1.707A8.90026,8.90026,0,0,0,21.76529,13.039a8.89672,8.89672,0,0,0-2.70508-6.30078.99989.99989,0,0,1,1.41406-1.41406,10.88035,10.88035,0,0,1,3.291,7.71679,10.88465,10.88465,0,0,1-3.291,7.69727A.99676.99676,0,0,1,19.76724,21.03119Z"/><path class="cls-1" d="M17.76724,18.03119a1,1,0,0,1-.707-1.707,4.9062,4.9062,0,0,0,0-6.58594.99989.99989,0,1,1,1.41406-1.41406,6.91889,6.91889,0,0,1,0,9.41406A.99676.99676,0,0,1,17.76724,18.03119Z"/></svg>