<svg id="Capa_1" data-name="Capa 1" xmlns="http://www.w3.org/2000/svg" viewBox="0 0 26.59331 22.46676"><defs> </defs><title>alert</title><path class="cls-1" d="M13.29631,13.24682a.99942.99942,0,0,1-1-1v-3a1,1,0,0,1,2,0v3A.99943.99943,0,0,1,13.29631,13.24682Z"/><circle class="cls-1" cx="13.29673" cy="15.24682" r="1"/><path class="cls-1" d="M21.54826,20.24682H5.04533a1.99994,1.99994,0,0,1-1.72461-3.0127l8.252-14.0293a2.00028,2.00028,0,0,1,3.44824,0l8.252,14.02832a1.99976,1.99976,0,0,1-1.72461,3.01368Zm-8.251-16.02637-8.252,14.02637H21.54826Z"/></svg>