<svg id="Capa_1" data-name="Capa 1" xmlns="http://www.w3.org/2000/svg" viewBox="0 0 26.82256 26.82256"><defs> </defs><title>chat</title><path class="cls-1" d="M5.41128,23.41128a.99962.99962,0,0,1-.99024-1.1416l.57911-4.04981a8.06471,8.06471,0,0,1-2.58887-5.80859c0-4.96289,4.93457-9,11-9s11,4.03711,11,9-4.93457,9-11,9a13.34218,13.34218,0,0,1-3.06055-.35156L5.85854,23.30581A1.006,1.006,0,0,1,5.41128,23.41128Zm8-18c-4.96289,0-9,3.14062-9,7a6.20678,6.20678,0,0,0,2.30859,4.67187,1.001,1.001,0,0,1,.335.89747L6.671,20.66323l3.11719-1.55859a.99982.99982,0,0,1,.70606-.07129,11.26091,11.26091,0,0,0,2.917.37793c4.96289,0,9-3.14063,9-7S18.37417,5.41128,13.41128,5.41128Z"/></svg>