<svg id="Capa_1" data-name="Capa 1" xmlns="http://www.w3.org/2000/svg" viewBox="0 0 19.94498 25.90555"><defs><style>.cls-1{fill:#444242;}</style></defs><title>down down</title><path class="cls-1" d="M16.93187,16.35927l-5.96021,5.96-.08984.08a.94882.94882,0,0,1-.66016.25.98427.98427,0,0,1-.65991-.25l-.09009-.09-5.94995-5.95a1.00821,1.00821,0,0,1,0-1.42.99615.99615,0,0,1,1.41016,0l4.28979,4.30005v-15.59a1,1,0,0,1,2,0v15.59l4.30005-4.30005a.99615.99615,0,0,1,1.41016,0A1.00821,1.00821,0,0,1,16.93187,16.35927Z"/><path class="cls-1" d="M10.88182,22.39925l-.66016.66-.65991-.66a.98427.98427,0,0,0,.65991.25A.94882.94882,0,0,0,10.88182,22.39925Z"/></svg>