<svg id="Capa_1" data-name="Capa 1" xmlns="http://www.w3.org/2000/svg" viewBox="0 0 24.53003 27.28106"><defs><style>.cls-1{fill:#444242;}</style></defs><title>download</title><path class="cls-1" d="M17.33209,7.66805h-4V5.078l1.3,1.3a1.00119,1.00119,0,0,0,.7.29,1.02422,1.02422,0,0,0,.71021-.29,1.00821,1.00821,0,0,0,0-1.42L12.33209,1.25808l-3.7,3.7a1.00821,1.00821,0,0,0,0,1.42.99613.99613,0,0,0,1.41016,0l1.28979-1.3v2.59h-4a3.00887,3.00887,0,0,0-3,3v10a3.00886,3.00886,0,0,0,3,3h10a3.00225,3.00225,0,0,0,3-3v-10A3.00226,3.00226,0,0,0,17.33209,7.66805Zm1,13a1.00291,1.00291,0,0,1-1,1h-10a1.00308,1.00308,0,0,1-1-1v-10a1.00308,1.00308,0,0,1,1-1h4v6a1,1,0,0,0,2,0v-6h4a1.00291,1.00291,0,0,1,1,1Z"/></svg>