<svg id="Capa_1" data-name="Capa 1" xmlns="http://www.w3.org/2000/svg" viewBox="0 0 19.94498 25.90555"><defs> </defs><title>down down</title><path class="cls-1" d="M16.67757,16.45781l-5.96021,5.96-.08984.08a.94888.94888,0,0,1-.66016.25.98432.98432,0,0,1-.65991-.25l-.09009-.09-5.94995-5.95a1.00821,1.00821,0,0,1,0-1.42.99613.99613,0,0,1,1.41016,0l4.28979,4.3v-15.59a1,1,0,0,1,2,0v15.59l4.30005-4.3a.99613.99613,0,0,1,1.41016,0A1.00821,1.00821,0,0,1,16.67757,16.45781Z"/><path class="cls-1" d="M10.62752,22.49779l-.66016.66-.65991-.66a.98432.98432,0,0,0,.65991.25A.94888.94888,0,0,0,10.62752,22.49779Z"/></svg>