<svg id="Capa_1" data-name="Capa 1" xmlns="http://www.w3.org/2000/svg" viewBox="0 0 24.53003 27.28106"><defs> </defs><title>download</title><path class="cls-1" d="M17.265,8.84552h-4v-2.59l1.3,1.3a1.00126,1.00126,0,0,0,.7.29,1.02425,1.02425,0,0,0,.7102-.29,1.00821,1.00821,0,0,0,0-1.42L12.265,2.43555l-3.7,3.7a1.00821,1.00821,0,0,0,0,1.42.99615.99615,0,0,0,1.41016,0l1.2898-1.3v2.59h-4a3.00886,3.00886,0,0,0-3,3v10a3.00886,3.00886,0,0,0,3,3h10a3.00227,3.00227,0,0,0,3-3v-10A3.00226,3.00226,0,0,0,17.265,8.84552Zm1,13a1.00292,1.00292,0,0,1-1,1h-10a1.00307,1.00307,0,0,1-1-1v-10a1.00307,1.00307,0,0,1,1-1h4v6a1,1,0,0,0,2,0v-6h4a1.00292,1.00292,0,0,1,1,1Z"/></svg>