<svg id="Capa_1" data-name="Capa 1" xmlns="http://www.w3.org/2000/svg" viewBox="0 0 31.77348 27.6667"><defs></defs><title>Mesa de trabajo 98</title><path class="cls-1" d="M25.36381,15.9916a.527.527,0,0,0-.527.527v4.6796a1.58293,1.58293,0,0,1-1.58107,1.58107H8.468a1.58292,1.58292,0,0,1-1.58107-1.58107V7.46452A1.5828,1.5828,0,0,1,8.468,5.88344h4.6794a.527.527,0,0,0,0-1.054H8.468A2.63808,2.63808,0,0,0,5.83283,7.46452V21.19823A2.63809,2.63809,0,0,0,8.468,23.83335H23.25571a2.63809,2.63809,0,0,0,2.63512-2.63512v-4.6794A.52715.52715,0,0,0,25.36381,15.9916Z"/><path class="cls-2" d="M14.07376,13.21834,21.76893,5.523l2.48174,2.48175L16.5555,15.70009Z"/><path class="cls-2" d="M12.81816,16.95569l2.74259-.75966L13.57782,14.2131Z"/><path class="cls-2" d="M24.93684,4.21858a1.3192,1.3192,0,0,0-1.86332,0l-.55894.55894,2.48175,2.48175.55893-.55894a1.31882,1.31882,0,0,0,0-1.86332Z"/></svg>