<svg id="Capa_1" data-name="Capa 1" xmlns="http://www.w3.org/2000/svg" viewBox="0 0 26.36405 27.51032"><defs><style>.cls-1{fill:#444242;}</style></defs><title>favorite</title><path class="cls-1" d="M23.87637,13.02967l-3.45,3.37.82007,4.75a2.00237,2.00237,0,0,1-1.98,2.34,2.09388,2.09388,0,0,1-.92993-.23l-4.26-2.24-4.27,2.24a1.99552,1.99552,0,0,1-2.90015-2.11l.81006-4.75-3.44995-3.37a1.99568,1.99568,0,0,1,1.10986-3.41l4.77-.69,2.13013-4.32a1.99847,1.99847,0,0,1,3.59009,0l2.12988,4.32,4.78.69a2.01167,2.01167,0,0,1,1.61011,1.36A1.97868,1.97868,0,0,1,23.87637,13.02967Z"/></svg>