<svg id="Capa_1" data-name="Capa 1" xmlns="http://www.w3.org/2000/svg" viewBox="0 0 29.57359 23.84227"><defs> </defs><title>folder</title><path class="cls-1" d="M6.78924,20.92211a3.00079,3.00079,0,0,1-2.999-2.999l-.00683-11.999a3.00454,3.00454,0,0,1,2.998-3.002l3.76368-.00195a2.9861,2.9861,0,0,1,2.68554,1.65723l.1709.34179,9.38184-.00488h.00195a3.00077,3.00077,0,0,1,2.999,2.999l.00586,9.999a3.00454,3.00454,0,0,1-2.998,3.002l-16.001.00781Zm-.00586-16a1.00214,1.00214,0,0,0-1,1.001l.00683,11.999a.99859.99859,0,0,0,.999,1h.001l16.001-.00781a1.0013,1.0013,0,0,0,.999-1.001l-.00586-9.999a.99859.99859,0,0,0-.999-1h-.001l-10.61914.00488-.72363-1.44726a.99591.99591,0,0,0-.89551-.55176Z"/></svg>