<svg id="Capa_1" data-name="Capa 1" xmlns="http://www.w3.org/2000/svg" viewBox="0 0 27.05181 25.44704"><defs> </defs><title>heart</title><path class="cls-1" d="M13.523,22.893l-2.11231-1.88769C6.05423,16.24061,2.52591,13.10292,2.52591,8.9496a6.38018,6.38018,0,0,1,6.5-6.39551,7.06557,7.06557,0,0,1,4.5,1.65234,7.06955,7.06955,0,0,1,4.5-1.65234,6.38019,6.38019,0,0,1,6.5,6.39551c0,4.14648-3.51856,7.2832-8.84473,12.03027ZM9.02591,4.55409a4.40124,4.40124,0,0,0-4.5,4.39551c0,3.25488,3.26171,6.15625,8.19921,10.54785l.80372.71777.78417-.69434C19.274,15.099,22.52591,12.1996,22.52591,8.9496a4.40125,4.40125,0,0,0-4.5-4.39551,5.02634,5.02634,0,0,0-3.74512,1.706l-.75488.86817L12.771,6.25917A5.02569,5.02569,0,0,0,9.02591,4.55409Z"/></svg>