<svg id="Capa_1" data-name="Capa 1" xmlns="http://www.w3.org/2000/svg" viewBox="0 0 31.40761 27.05181"><defs> </defs><title>home</title><path class="cls-1" d="M15.70381,1.35092l-11,9.9v11.45a2.75528,2.75528,0,0,0,3,3h16a2.75517,2.75517,0,0,0,3-3v-11.45Zm-2,22.35a1.00307,1.00307,0,0,1-1-1v-6a1.00308,1.00308,0,0,1,1-1h4a1.00293,1.00293,0,0,1,1,1v6a1.00292,1.00292,0,0,1-1,1Zm11-1c0,.79-.21,1-1,1H20.52387a2.76936,2.76936,0,0,0,.17994-1v-6a3.00227,3.00227,0,0,0-3-3h-4a3.00886,3.00886,0,0,0-3,3v6a2.76949,2.76949,0,0,0,.18017,1H7.70381c-.77979,0-1-.21-1-1v-10.55l9-8.1,9,8.1Z"/></svg>