<svg id="Capa_1" data-name="Capa 1" xmlns="http://www.w3.org/2000/svg" viewBox="0 0 20.40348 26.59331"><defs> </defs><title>idea</title><path class="cls-1" d="M12.18413,23.79665h-4a1,1,0,0,1,0-2h4a1,1,0,0,1,0,2Z"/><path class="cls-1" d="M12.18413,19.79665h-4a1.87428,1.87428,0,0,1-2-2c0-.77343,0-2.58593-.707-3.293a6.76309,6.76309,0,0,1-.24219-9.65625,6.99862,6.99862,0,0,1,9.89941,0,6.68359,6.68359,0,0,1-.24316,9.65625c-.707.707-.707,2.51954-.707,3.293A1.87428,1.87428,0,0,1,12.18413,19.79665Zm-4-2h4c0-1.1084,0-3.41406,1.293-4.707a4.67868,4.67868,0,0,0,.24316-6.82812,4.99934,4.99934,0,0,0-7.07129,0,4.73183,4.73183,0,0,0,.24219,6.82812C8.18413,14.38259,8.18413,16.68825,8.18413,17.79665Z"/></svg>