<svg id="Capa_1" data-name="Capa 1" xmlns="http://www.w3.org/2000/svg" viewBox="0 0 20.40348 26.59331"><defs><style>.cls-1{fill:#444242;}</style></defs><title>idea</title><path class="cls-1" d="M12.82547,23.68043h-4a1,1,0,1,1,0-2h4a1,1,0,0,1,0,2Z"/><path class="cls-1" d="M12.82547,19.68043h-4a1.87428,1.87428,0,0,1-2-2c0-.77344,0-2.58594-.707-3.293a6.76309,6.76309,0,0,1-.24219-9.65625,6.99862,6.99862,0,0,1,9.89941,0,6.68358,6.68358,0,0,1-.24316,9.65625c-.707.707-.707,2.51953-.707,3.293A1.87429,1.87429,0,0,1,12.82547,19.68043Zm-4-2h4c0-1.1084,0-3.41406,1.293-4.707a4.67868,4.67868,0,0,0,.24316-6.82813,4.99937,4.99937,0,0,0-7.07129,0A4.73185,4.73185,0,0,0,7.5325,12.9734C8.82547,14.26637,8.82547,16.572,8.82547,17.68043Z"/></svg>