<svg id="Capa_1" data-name="Capa 1" xmlns="http://www.w3.org/2000/svg" viewBox="0 0 26.82256 20.17423"><defs> </defs><title>left left</title><path class="cls-1" d="M23.61624,10.08836a.99651.99651,0,0,1-1,1H7.0364l4.29,4.29a1.00821,1.00821,0,0,1,0,1.42,1.02425,1.02425,0,0,1-.7102.29,1.00126,1.00126,0,0,1-.7-.29l-5.96-5.96-.09008-.09a.99612.99612,0,0,1,0-1.31994l.09008-.09,5.96-5.96a.99613.99613,0,0,1,1.41016,0,1.00821,1.00821,0,0,1,0,1.42l-4.29,4.29H22.61624A.99651.99651,0,0,1,23.61624,10.08836Z"/><path class="cls-1" d="M3.61624,10.08836a.98483.98483,0,0,0,.25.66l-.65992-.66.65992-.66A.98483.98483,0,0,0,3.61624,10.08836Z"/></svg>