<svg id="Capa_1" data-name="Capa 1" xmlns="http://www.w3.org/2000/svg" viewBox="0 0 26.82256 20.17423"><defs><style>.cls-1{fill:#444242;}</style></defs><title>left left</title><path class="cls-1" d="M25.1198,10.35673a.99651.99651,0,0,1-1,1H8.54l4.29,4.29a1.00822,1.00822,0,0,1,0,1.42,1.02426,1.02426,0,0,1-.71021.29,1.00123,1.00123,0,0,1-.69995-.29l-5.96-5.96-.09009-.09a.99613.99613,0,0,1,0-1.32l.09009-.09,5.96-5.96a.99615.99615,0,0,1,1.41016,0,1.00822,1.00822,0,0,1,0,1.42l-4.29,4.29H24.1198A.9965.9965,0,0,1,25.1198,10.35673Z"/><path class="cls-1" d="M5.1198,10.35673a.98488.98488,0,0,0,.25.66l-.65991-.66.65991-.66A.98493.98493,0,0,0,5.1198,10.35673Z"/></svg>