<svg id="Capa_1" data-name="Capa 1" xmlns="http://www.w3.org/2000/svg" viewBox="0 0 25.21779 25.21779"><defs> </defs><title>location</title><path class="cls-1" d="M12.61182,11.40186c-.02929,0-.05957-.001-.08984-.00195a1.99967,1.99967,0,0,1-1.26367-3.47266,2.0003,2.0003,0,1,1,1.35351,3.47461Zm-.00195-2h0Z"/><path class="cls-1" d="M12.6089,23.81593l-.707-.707c-4.83886-4.83985-7.293-9.56348-7.293-14.04a7.84778,7.84778,0,0,1,8-7.667,7.84779,7.84779,0,0,1,8,7.667c0,4.47754-2.45411,9.20117-7.293,14.04Zm0-20.41407a5.847,5.847,0,0,0-6,5.667c0,3.71289,2.01757,7.71289,6,11.90136,3.98242-4.1875,6-8.1875,6-11.90136A5.847,5.847,0,0,0,12.6089,3.40186Z"/></svg>