<svg id="Capa_1" data-name="Capa 1" xmlns="http://www.w3.org/2000/svg" viewBox="0 0 29.80284 22.92526"><defs> </defs><title>mail</title><path class="cls-1" d="M14.23249,14.20627,4.97573,5.87476a.99992.99992,0,0,1-.07426-1.41218h0a.99992.99992,0,0,1,1.41207-.07429l7.919,7.12668a.99992.99992,0,0,0,1.33778,0l7.919-7.12668a.99991.99991,0,0,1,1.41207.07429h0a.99992.99992,0,0,1-.07425,1.41218l-9.25677,8.33151A.99992.99992,0,0,1,14.23249,14.20627Z"/><rect class="cls-1" x="3.08635" y="13.46256" width="10.63015" height="2.00013" transform="translate(-8.01666 11.26918) rotate(-48.84039)"/><rect class="cls-1" x="20.40135" y="9.14756" width="2.00013" height="10.63015" transform="matrix(0.75258, -0.6585, 0.6585, 0.75258, -4.2285, 17.67133)"/><path class="cls-1" d="M23.90142,20.46263h-18a3.00328,3.00328,0,0,1-3-3v-12a3.00328,3.00328,0,0,1,3-3h18a3.00328,3.00328,0,0,1,3,3v12A3.00328,3.00328,0,0,1,23.90142,20.46263Zm-18-16a1.00067,1.00067,0,0,0-1,1v12a1.00067,1.00067,0,0,0,1,1h18a1.00067,1.00067,0,0,0,1-1v-12a1.00067,1.00067,0,0,0-1-1Z"/></svg>