<svg id="Capa_1" data-name="Capa 1" xmlns="http://www.w3.org/2000/svg" viewBox="0 0 16.50619 20.40348"><defs> </defs><title>menu</title><path class="cls-1" d="M14.25288,6.20174h-8a1,1,0,0,1,0-2h8a1,1,0,0,1,0,2Z"/><path class="cls-1" d="M14.25288,11.20174h-8a1,1,0,1,1,0-2h8a1,1,0,0,1,0,2Z"/><path class="cls-1" d="M14.25288,16.20174h-8a1,1,0,1,1,0-2h8a1,1,0,0,1,0,2Z"/><circle class="cls-1" cx="2.25331" cy="5.20174" r="1"/><circle class="cls-1" cx="2.25331" cy="10.20174" r="1"/><circle class="cls-1" cx="2.25331" cy="15.20174" r="1"/></svg>