<svg id="Capa_1" data-name="Capa 1" xmlns="http://www.w3.org/2000/svg" viewBox="0 0 27.96882 27.05181"><defs> </defs><title>Mesa de trabajo 48</title><path class="cls-1" d="M21.98441,21.52591H10.81351A2.9815,2.9815,0,0,1,8.69242,20.647l-6.415-6.41406a.99964.99964,0,0,1,0-1.41407l6.415-6.41406a2.98153,2.98153,0,0,1,2.12109-.8789h11.1709a4.004,4.004,0,0,1,4,4v8A4.004,4.004,0,0,1,21.98441,21.52591Zm-17.58594-8,5.708,5.707a1.00685,1.00685,0,0,0,.707.293h11.1709a2.00261,2.00261,0,0,0,2-2v-8a2.0026,2.0026,0,0,0-2-2H10.81351a1.00684,1.00684,0,0,0-.707.293Z"/><circle class="cls-1" cx="11.98441" cy="13.52591" r="2"/></svg>