<svg id="Capa_1" data-name="Capa 1" xmlns="http://www.w3.org/2000/svg" viewBox="0 0 24.98854 20.17423"><defs> </defs><title>rewind right</title><path class="cls-1" d="M11.84988,17.07979a1.99745,1.99745,0,0,1-2.0039-1.999v-.73242l-4.17676,2.457a2.00127,2.00127,0,0,1-3.01465-1.72461V5.09444A2.001,2.001,0,0,1,5.66531,3.36788L9.846,5.82686V5.09444a1.99993,1.99993,0,0,1,3.01269-1.72461L21.34793,8.363a2.0038,2.0038,0,0,1,.71094,2.73829,2.03125,2.03125,0,0,1-.707.709l-8.49218,4.99512A1.98726,1.98726,0,0,1,11.84988,17.07979ZM10.846,11.59932a1.00026,1.00026,0,0,1,1,1v2.48145l8.48828-4.99317L11.846,5.09444V7.57588a1.00032,1.00032,0,0,1-1.50684.86231L4.65555,5.09444l-.001,9.98633L10.33914,11.737A.99871.99871,0,0,1,10.846,11.59932Z"/></svg>