<svg id="Capa_1" data-name="Capa 1" xmlns="http://www.w3.org/2000/svg" viewBox="0 0 25.21779 19.94498"><defs> </defs><title>right right</title><path class="cls-1" d="M22.6089,9.97373a1.01466,1.01466,0,0,1-.2898.71l-6,6a1.02424,1.02424,0,0,1-.7102.29,1,1,0,0,1-.7-1.71l4.29-4.29H3.6089a1,1,0,0,1,0-2H19.199l-4.29-4.29a1.00822,1.00822,0,0,1,0-1.42005.99615.99615,0,0,1,1.41016,0l6,6A1.01462,1.01462,0,0,1,22.6089,9.97373Z"/><path class="cls-1" d="M12.25391,10.68251a1.01469,1.01469,0,0,0,0-1.42l.71.71Z"/></svg>