<svg id="Capa_1" data-name="Capa 1" xmlns="http://www.w3.org/2000/svg" viewBox="0 0 24.98854 21.54975"><defs><style>.cls-1{fill:#444242;}</style></defs><title>rrewind</title><path class="cls-1" d="M13.80812,17.58012a1.99159,1.99159,0,0,1-1.00977-.27637L4.31007,12.31059a2.00038,2.00038,0,0,1,0-3.44922L12.79835,3.8682A2.0007,2.0007,0,0,1,15.812,5.59281v.73243l4.17676-2.457a2.0007,2.0007,0,0,1,3.01367,1.72461v9.98633a1.99962,1.99962,0,0,1-3.01269,1.72461l-4.17774-2.457v.73242a2.00145,2.00145,0,0,1-.27832,1.0166,2.00945,2.00945,0,0,1-1.72558.98438ZM14.812,12.0977a.99883.99883,0,0,1,.50684.13769l5.68359,3.34375V5.59281L15.31886,8.93656a1.00032,1.00032,0,0,1-1.50684-.8623V5.59281L5.32374,10.586,13.812,15.57914V13.0977a1.00024,1.00024,0,0,1,1-1Z"/></svg>