<svg id="Capa_1" data-name="Capa 1" xmlns="http://www.w3.org/2000/svg" viewBox="0 0 24.98854 21.54975"><defs> </defs><title>rrewind</title><path class="cls-1" d="M13.1399,17.76853a1.99159,1.99159,0,0,1-1.00977-.27637L3.64185,12.499a2.00038,2.00038,0,0,1,0-3.44922l8.48828-4.99317A2.0007,2.0007,0,0,1,15.1438,5.78122v.73242l4.17676-2.457a2.0007,2.0007,0,0,1,3.01367,1.72461v9.98633a1.99962,1.99962,0,0,1-3.01269,1.72461l-4.17774-2.457v.73242a2.00147,2.00147,0,0,1-.27832,1.0166,2.00945,2.00945,0,0,1-1.72558.98438Zm1.0039-5.48243a.99874.99874,0,0,1,.50684.1377l5.68359,3.34375V5.78122L14.65064,9.125a1.00032,1.00032,0,0,1-1.50684-.8623V5.78122L4.65552,10.77439l8.48828,4.99316V13.2861a1.00026,1.00026,0,0,1,1-1Z"/></svg>