<svg id="Capa_1" data-name="Capa 1" xmlns="http://www.w3.org/2000/svg" viewBox="0 0 27.51032 23.61302"><defs> </defs><title>settings</title><path class="cls-1" d="M14.31362,21.80651H13.19741a2.99528,2.99528,0,0,1-2.84668-2.05176l-.28223-.84668c-.21093-.10937-.417-.22949-.61816-.35742l-.877.17871a2.996,2.996,0,0,1-3.19922-1.43945l-.5586-.9668a2.99585,2.99585,0,0,1,.3545-3.49023l.59277-.66992c-.00488-.11817-.00781-.23731-.00781-.35645s.00293-.23828.00781-.35644l-.59277-.66993a2.99585,2.99585,0,0,1-.3545-3.49023l.5586-.9668A2.99615,2.99615,0,0,1,8.57339,4.88366l.877.17871c.20117-.12793.40723-.248.61816-.35742l.28321-.84766a2.99352,2.99352,0,0,1,2.8457-2.05078h1.11621a2.99628,2.99628,0,0,1,2.8457,2.05078l.28321.84766c.21093.11035.418.22949.61816.35742l.87695-.17871a2.99917,2.99917,0,0,1,3.19922,1.43945l.5586.9668a2.99865,2.99865,0,0,1-.3545,3.49023l-.59375.6709c.00489.11719.00782.23633.00782.35547s-.00293.23828-.00782.35547l.59375.6709a2.99731,2.99731,0,0,1,.3545,3.48926l-.5586.96777a2.9993,2.9993,0,0,1-3.19922,1.43945l-.87695-.17871c-.2002.12793-.40723.24707-.61816.35742l-.28321.84766A2.99628,2.99628,0,0,1,14.31362,21.80651ZM9.89077,16.41882l.35644.25585a5.97074,5.97074,0,0,0,1.04688.60547l.39941.17969.55469,1.66309a.99885.99885,0,0,0,.94922.68359h1.11621a.99977.99977,0,0,0,.94922-.68359l.55469-1.66309.39941-.17969a5.98791,5.98791,0,0,0,1.04688-.60547l.35644-.25585,1.71777.35156a1.00139,1.00139,0,0,0,1.06641-.48047l.55859-.9668a1.00081,1.00081,0,0,0-.11816-1.16406L19.68374,12.8485l.042-.43359q.02929-.29883.0293-.6084c0-.206-.00977-.4082-.0293-.60937l-.042-.43262L20.84487,9.454a1.00216,1.00216,0,0,0,.11816-1.165l-.55859-.96582A1.00175,1.00175,0,0,0,19.338,6.84264l-1.71777.35157-.35644-.25586a5.98791,5.98791,0,0,0-1.04688-.60547l-.39941-.17969L15.26284,4.4901a.99977.99977,0,0,0-.94922-.68359H13.19741a.99709.99709,0,0,0-.94824.68262L11.6935,6.15319l-.39941.17969a5.97137,5.97137,0,0,0-1.04688.60547l-.35644.25586L8.173,6.84264a.99738.99738,0,0,0-1.0664.48047l-.5586.9668A.99926.99926,0,0,0,6.66616,9.454l1.16113,1.31055-.042.43262c-.01953.20117-.03027.40332-.03027.60937s.01074.40918.03027.6084l.042.43359L6.66616,14.15905A.99926.99926,0,0,0,6.548,15.32311l.5586.9668a.9993.9993,0,0,0,1.0664.48047Z"/><circle class="cls-1" cx="13.75545" cy="11.80651" r="2"/></svg>