<svg id="Capa_1" data-name="Capa 1" xmlns="http://www.w3.org/2000/svg" viewBox="0 0 23.61302 19.02797"><defs> </defs><title>share</title><path class="cls-1" d="M7.80651,9.514A1.00012,1.00012,0,0,1,7.455,7.57746l8-3a1.00034,1.00034,0,0,1,.70312,1.87305l-8,3A1.00966,1.00966,0,0,1,7.80651,9.514Z"/><path class="cls-1" d="M15.80651,14.514a1.00966,1.00966,0,0,1-.35156-.06347l-8-3a1.00034,1.00034,0,0,1,.70312-1.873l8,3a1.00012,1.00012,0,0,1-.35156,1.93652Z"/><path class="cls-1" d="M5.80651,12.514a3,3,0,1,1,3-3A3.00328,3.00328,0,0,1,5.80651,12.514Zm0-4a1,1,0,1,0,1,1A1.00068,1.00068,0,0,0,5.80651,8.514Z"/><path class="cls-1" d="M17.80651,7.514a3,3,0,1,1,3-3A3.00328,3.00328,0,0,1,17.80651,7.514Zm0-4a1,1,0,1,0,1,1A1.00068,1.00068,0,0,0,17.80651,3.514Z"/><path class="cls-1" d="M17.80651,17.514a3,3,0,1,1,3-3A3.00328,3.00328,0,0,1,17.80651,17.514Zm0-4a1,1,0,1,0,1,1A1.00068,1.00068,0,0,0,17.80651,13.514Z"/></svg>