<svg id="Capa_1" data-name="Capa 1" xmlns="http://www.w3.org/2000/svg" viewBox="0 0 27.96882 26.82256"><defs> </defs><title>STAR</title><path class="cls-1" d="M8.78568,22.38874a1.00022,1.00022,0,0,1-.98535-1.16894l.9043-5.27149L4.87455,12.21589a.99965.99965,0,0,1,.55469-1.70508l5.292-.76953,2.36621-4.79492a1.04014,1.04014,0,0,1,1.793,0l2.36718,4.79492,5.292.76953a.99965.99965,0,0,1,.55468,1.70508l-3.83007,3.7334.90429,5.27051a.99989.99989,0,0,1-1.45117,1.05371l-4.7334-2.48828L9.2515,22.27351A.9993.9993,0,0,1,8.78568,22.38874Zm5.19824-4.73339a.9964.9964,0,0,1,.46582.11523l3.40528,1.79-.65039-3.792a.99974.99974,0,0,1,.28711-.88477l2.75488-2.68555L16.44,11.6446a.9982.9982,0,0,1-.75293-.54687L13.98392,7.64851l-1.70215,3.44922a.99816.99816,0,0,1-.75293.54687l-3.80664.55371,2.75489,2.68555a.9998.9998,0,0,1,.28711.88477l-.65039,3.792,3.40429-1.79A.99646.99646,0,0,1,13.98392,17.65535Z"/></svg>