<svg id="Capa_1" data-name="Capa 1" xmlns="http://www.w3.org/2000/svg" viewBox="0 0 26.36405 23.61302"><defs><style>.cls-1{fill:#444242;}</style></defs><title>trash</title><path class="cls-1" d="M21.9552,5.73224a.9965.9965,0,0,1-1,1h-14a1,1,0,0,1,0-2h4a1.00308,1.00308,0,0,1,1-1h4a.9965.9965,0,0,1,1,1h4A.9965.9965,0,0,1,21.9552,5.73224Z"/><path class="cls-1" d="M18.958,21.73224h-10a1.87428,1.87428,0,0,1-2-2v-10a1,1,0,1,1,2,0v10h10v-10a1,1,0,1,1,2,0v10A1.87428,1.87428,0,0,1,18.958,21.73224Zm-9.98926-1.8789Zm-.13184-.13184Z"/></svg>