<svg id="Capa_1" data-name="Capa 1" xmlns="http://www.w3.org/2000/svg" viewBox="0 0 26.36405 23.61302"><defs> </defs><title>trash</title><path class="cls-1" d="M21.182,4.80651a.9965.9965,0,0,1-1,1h-14a1,1,0,0,1,0-2h4a1.00307,1.00307,0,0,1,1-1h4a.9965.9965,0,0,1,1,1h4A.9965.9965,0,0,1,21.182,4.80651Z"/><path class="cls-1" d="M18.1848,20.80651h-10a1.87429,1.87429,0,0,1-2-2v-10a1,1,0,0,1,2,0v10h10v-10a1,1,0,0,1,2,0v10A1.87428,1.87428,0,0,1,18.1848,20.80651ZM8.19554,18.9276Zm-.13183-.13183Z"/></svg>