<svg id="Capa_1" data-name="Capa 1" xmlns="http://www.w3.org/2000/svg" viewBox="0 0 17.19395 24.75928"><defs> </defs><title>up 01</title><path class="cls-1" d="M15.30205,10.29465a1.02425,1.02425,0,0,1-.7102.29,1.00121,1.00121,0,0,1-.7-.29l-4.3-4.30005v15.59a1,1,0,1,1-2,0V5.9946l-4.2898,4.30005a.99614.99614,0,0,1-1.41015,0,1.00819,1.00819,0,0,1,0-1.42l5.95-5.95.09008-.09a.98437.98437,0,0,1,.65992-.25.948.948,0,0,1,.66015.25l.08985.08,5.9602,5.96A1.00821,1.00821,0,0,1,15.30205,10.29465Z"/><path class="cls-1" d="M9.252,2.83463a.948.948,0,0,0-.66015-.25.98437.98437,0,0,0-.65992.25l.65992-.66Z"/></svg>