<svg id="Capa_1" data-name="Capa 1" xmlns="http://www.w3.org/2000/svg" viewBox="0 0 30.94911 24.75928"><defs><style>.cls-1{fill:#444242;}</style></defs><title>user</title><path class="cls-1" d="M17.06937,1.57268a11,11,0,1,0,11,11A11.01311,11.01311,0,0,0,17.06937,1.57268Zm0,20a8.88746,8.88746,0,0,1-4.75977-1.37,10.10282,10.10282,0,0,0,3.47-1.92,1.638,1.638,0,0,0-.22-2.47c-.59008-.63-1.49023-1.59-1.49023-4.24,0-3.54,1.61011-4,3-4,1.40015,0,3,.46,3,4,0,2.65-.88989,3.61-1.48,4.24a1.62406,1.62406,0,0,0-.22,2.47,10.10292,10.10292,0,0,0,3.47,1.92A8.9227,8.9227,0,0,1,17.06937,21.57268Zm6.55005-2.84a1.63263,1.63263,0,0,0-.23-.11,12.11213,12.11213,0,0,1-3.29-1.49,7.29979,7.29979,0,0,0,1.97-5.56c0-5.22-3.12988-6-5-6-1.85986,0-5,.78-5,6a7.29525,7.29525,0,0,0,1.98,5.56,12.6,12.6,0,0,1-3.2898,1.49.89657.89657,0,0,0-.24.12,9.00461,9.00461,0,1,1,13.09986-.01Z"/></svg>