<svg id="Capa_1" data-name="Capa 1" xmlns="http://www.w3.org/2000/svg" viewBox="0 0 30.94911 24.75928"><defs> </defs><title>user</title><path class="cls-1" d="M15.47455,1.37964a11,11,0,1,0,11,11A11.01312,11.01312,0,0,0,15.47455,1.37964Zm0,20a8.8874,8.8874,0,0,1-4.75976-1.37,10.103,10.103,0,0,0,3.47-1.92,1.638,1.638,0,0,0-.22-2.47c-.59009-.63-1.49024-1.59-1.49024-4.24,0-3.54,1.61011-4,3-4,1.40015,0,3,.46,3,4,0,2.65-.88989,3.61-1.48,4.24a1.62407,1.62407,0,0,0-.22,2.47,10.103,10.103,0,0,0,3.47,1.92A8.9227,8.9227,0,0,1,15.47455,21.37964Zm6.55-2.84a1.63156,1.63156,0,0,0-.23-.11,12.11229,12.11229,0,0,1-3.29-1.49,7.29975,7.29975,0,0,0,1.97-5.56c0-5.22-3.12988-6-5-6-1.85986,0-5,.78-5,6a7.29525,7.29525,0,0,0,1.98,5.56,12.59932,12.59932,0,0,1-3.28979,1.49.896.896,0,0,0-.24.12,9.00461,9.00461,0,1,1,13.09985-.01Z"/></svg>