<svg id="Capa_1" data-name="Capa 1" xmlns="http://www.w3.org/2000/svg" viewBox="0 0 26.59331 24.07153"><defs> </defs><title>volume +</title><path class="cls-1" d="M16.00644,11.32116a1.0071,1.0071,0,0,0-.7102-.29v-3.59a2.016,2.016,0,0,0-.57983-1.41,1.99181,1.99181,0,0,0-2.83008,0l-3,3H5.29624a2.006,2.006,0,0,0-2,2v4a2.006,2.006,0,0,0,2,2H8.88633l3,3a2.02548,2.02548,0,0,0,1.40991.59,1.99939,1.99939,0,0,0,2-2v-3.59a1.02425,1.02425,0,0,0,.7102-.29A2.52436,2.52436,0,0,0,16.00644,11.32116Zm-2.7102,7.30005-3.2898-3.30005a1.03352,1.03352,0,0,0-.7102-.29h-4v-4h4a1.03353,1.03353,0,0,0,.7102-.29l3.2898-3.29Z"/><path class="cls-1" d="M19.299,21.03119a1,1,0,0,1-.707-1.707A8.90022,8.90022,0,0,0,21.29706,13.039,8.89672,8.89672,0,0,0,18.592,6.73822.99989.99989,0,1,1,20.006,5.32416a10.88034,10.88034,0,0,1,3.291,7.71679,10.88464,10.88464,0,0,1-3.291,7.69727A.9968.9968,0,0,1,19.299,21.03119Z"/><path class="cls-1" d="M17.299,18.03119a1,1,0,0,1-.707-1.707,4.90618,4.90618,0,0,0,0-6.58594A.99989.99989,0,1,1,18.006,8.32416a6.91891,6.91891,0,0,1,0,9.41406A.9968.9968,0,0,1,17.299,18.03119Z"/></svg>