<svg id="Capa_1" data-name="Capa 1" xmlns="http://www.w3.org/2000/svg" viewBox="0 0 19.25722 22.69601"><defs> </defs><title>volume -</title><path class="cls-1" d="M12.94,18.93394A2.01437,2.01437,0,0,1,11.526,18.348l-3-3H4.94a2.00261,2.00261,0,0,1-2-2v-4a2.0026,2.0026,0,0,1,2-2H8.526l3-3A1.98633,1.98633,0,0,1,12.94,3.76207h.002a1.98334,1.98334,0,0,1,1.41308.58691,2.00672,2.00672,0,0,1,.585,1.41309V16.93394A2.0026,2.0026,0,0,1,12.94,18.93394ZM4.94,9.348v4h4a.99926.99926,0,0,1,.707.293l3.293,3.293V5.766L9.647,9.055a.99927.99927,0,0,1-.707.293Zm8-3.58594h1l-1-.001Z"/><path class="cls-1" d="M14.94,13.348a1,1,0,0,1-.707-1.707.53974.53974,0,0,0,0-.58593A.99989.99989,0,0,1,15.647,9.641a2.50914,2.50914,0,0,1,0,3.41407A.99676.99676,0,0,1,14.94,13.348Z"/></svg>