<svg id="Capa_1" data-name="Capa 1" xmlns="http://www.w3.org/2000/svg" viewBox="0 0 27.05181 25.44704"><defs><style>.cls-1{fill:#444242;}</style></defs><title>heart</title><path class="cls-1" d="M13.59191,24.0193l-2.1123-1.8877C6.12316,17.367,2.59484,14.22926,2.59484,10.07594a6.38019,6.38019,0,0,1,6.5-6.39551,7.06555,7.06555,0,0,1,4.5,1.65234,7.06957,7.06957,0,0,1,4.5-1.65234,6.38019,6.38019,0,0,1,6.5,6.39551c0,4.14648-3.51855,7.2832-8.84473,12.03027ZM9.09484,5.68043a4.40124,4.40124,0,0,0-4.5,4.39551c0,3.25488,3.26172,6.15625,8.19922,10.54785l.80371.71777.78418-.69433c4.96094-4.42188,8.21289-7.32129,8.21289-10.57129a4.40124,4.40124,0,0,0-4.5-4.39551,5.02637,5.02637,0,0,0-3.74512,1.70606l-.75488.86816L12.84,7.38551A5.02575,5.02575,0,0,0,9.09484,5.68043Z"/></svg>