<svg id="Capa_1" data-name="Capa 1" xmlns="http://www.w3.org/2000/svg" viewBox="0 0 25.21779 25.21779"><defs><style>.cls-1{fill:#444242;}</style></defs><title>location</title><path class="cls-1" d="M12.70093,10.84641c-.02929,0-.05957-.001-.08984-.002A1.99967,1.99967,0,0,1,11.34742,7.3718a2.0003,2.0003,0,1,1,1.35351,3.47461Zm-.00195-2h0Z"/><path class="cls-1" d="M12.698,23.26047l-.707-.707C7.15211,17.7136,4.698,12.99,4.698,8.5134a7.84778,7.84778,0,0,1,8-7.667,7.84777,7.84777,0,0,1,8,7.667c0,4.47754-2.4541,9.20117-7.293,14.04Zm0-20.41406a5.847,5.847,0,0,0-6,5.667c0,3.71289,2.01758,7.71289,6,11.90137,3.98243-4.1875,6-8.1875,6-11.90137A5.847,5.847,0,0,0,12.698,2.84641Z"/></svg>