<svg id="Capa_1" data-name="Capa 1" xmlns="http://www.w3.org/2000/svg" viewBox="0 0 24.98854 20.17423"><defs><style>.cls-1{fill:#444242;}</style></defs><title>rewind right</title><path class="cls-1" d="M12.25462,16.4507a1.99745,1.99745,0,0,1-2.00391-1.999v-.73242L6.074,16.17629a2.00126,2.00126,0,0,1-3.01464-1.72461V4.46535A2.001,2.001,0,0,1,6.07005,2.73879l4.18066,2.459V4.46535a1.99994,1.99994,0,0,1,3.0127-1.72461L21.75267,7.7339a2.00379,2.00379,0,0,1,.71093,2.73829,2.03114,2.03114,0,0,1-.707.709l-8.49219,4.99512A1.9872,1.9872,0,0,1,12.25462,16.4507Zm-1.00391-5.48047a1.00025,1.00025,0,0,1,1,1v2.48145L20.739,9.45851,12.25071,4.46535V6.9468a1.00031,1.00031,0,0,1-1.50683.8623L5.06028,4.46535l-.001,9.98633,5.68457-3.34375A.9987.9987,0,0,1,11.25071,10.97023Z"/></svg>