<svg id="Capa_1" data-name="Capa 1" xmlns="http://www.w3.org/2000/svg" viewBox="0 0 27.96882 26.82256"><defs><style>.cls-1{fill:#444242;}</style></defs><title>STAR</title><path class="cls-1" d="M9.00916,21.20955a1.00024,1.00024,0,0,1-.98535-1.16895l.9043-5.27148L5.098,11.03669a.99964.99964,0,0,1,.55469-1.70507l5.292-.76954,2.36621-4.79492a1.04014,1.04014,0,0,1,1.793,0l2.36719,4.79492,5.292.76954a.99965.99965,0,0,1,.55469,1.70507l-3.83008,3.7334L20.392,20.0406a.99989.99989,0,0,1-1.45117,1.05371L14.2074,18.606,9.475,21.09431A.99931.99931,0,0,1,9.00916,21.20955Zm5.19824-4.7334a.9964.9964,0,0,1,.46582.11523l3.40528,1.79-.65039-3.792a.99974.99974,0,0,1,.28711-.88477l2.75488-2.68554-3.80664-.55372a.9982.9982,0,0,1-.75293-.54687L14.2074,6.46931,12.50526,9.91853a.9982.9982,0,0,1-.75293.54687l-3.80665.55372,2.75489,2.68554a.9998.9998,0,0,1,.28711.88477l-.65039,3.792,3.40429-1.79A.99646.99646,0,0,1,14.2074,16.47615Z"/></svg>